:SAMPLES-PER-SECOND 30
:FULLY-SPECIFIED
:DEGREES
1
root  91.0819 39.3055 1.15421 -139.011 -86.5501 136.938
RightUpLeg  0.41981 -7.16137 -2.5659
RightLeg  5.35783 4.79836 0.041237
RightFoot  -4.63434 0.092318 -2.1772
RightToes  -1.16417e-010 0 -3.6325e-017
Spine  4.79533 1.04129 -1.48267
Spine1  -0.901112 0.85417 1.52053
HEad  -18.0643 -14.8645 1.23157
LeftShoulder1  -0.842651 5.7381 -31.5488
LeftArm  3.73055 12.6473 -42.6296
LeftForeArm  24.1159 -18.3129 -5.3033
LeftHand  -0.0876624 8.9837 -1.17925
RightShoulder  -1.23681 -7.00628 28.8146
RightArm  18.93 -3.06505 47.469
RightForeArm  15.5492 15.0962 5.89225
RightHand  -0.00418205 3.18514 -0.291341
LeftUpLeg  0.18373 4.43975 -1.78341
LeftLeg  4.61352 4.37378 0.231401
LeftFoot  -2.93183 -0.20998 3.16837
LeftToes  3.13772e-010 -3.14513e-011 3.96022e-013
2
root  91.037 39.3127 1.16272 -138.625 -86.6085 136.677
RightUpLeg  0.369892 -6.95029 -2.44145
RightLeg  5.30394 4.48673 -0.162941
RightFoot  -4.63849 0.0824506 -2.02367
RightToes  -1.16417e-010 0 -3.6325e-017
Spine  4.45272 1.06469 -1.68265
Spine1  -0.674225 0.839906 1.72079
HEad  -18.2438 -14.6849 1.22035
LeftShoulder1  -0.82209 5.69229 -31.4011
LeftArm  3.61611 12.523 -42.8869
LeftForeArm  24.3221 -18.2486 -5.32257
LeftHand  -0.0857012 8.8297 -1.1992
RightShoulder  -1.21302 -6.93745 28.8241
RightArm  18.9602 -2.8797 47.342
RightForeArm  15.1435 15.3496 5.80022
RightHand  -0.00110189 3.22804 -0.252288
LeftUpLeg  0.114881 4.42588 -1.78149
LeftLeg  4.60283 4.29502 0.245907
LeftFoot  -2.8994 -0.20505 3.09163
LeftToes  3.13772e-010 -3.14513e-011 3.96022e-013
3
root  90.9833 39.3254 1.17436 -142.545 -86.4054 140.769
RightUpLeg  0.401653 -6.79939 -2.35893
RightLeg  4.96011 4.73431 -0.223904
RightFoot  -4.50524 0.0746594 -1.90246
RightToes  -1.16417e-010 0 -3.6325e-017
Spine  4.055 1.22512 -1.74525
Spine1  -0.422276 0.982274 1.7728
HEad  -18.471 -14.9748 1.23511
LeftShoulder1  -0.816768 5.67694 -31.4216
LeftArm  3.70581 12.4086 -43.0241
LeftForeArm  24.2015 -18.3382 -5.28796
LeftHand  -0.0868257 8.63272 -1.33667
RightShoulder  -1.17613 -6.84937 28.6469
RightArm  18.8457 -2.8885 47.3598
RightForeArm  14.9916 15.7104 5.63744
RightHand  0.0166287 3.48489 -0.0286688
LeftUpLeg  0.107034 4.50388 -1.71242
LeftLeg  4.50188 4.36526 0.252207
LeftFoot  -2.86715 -0.194043 2.92032
LeftToes  3.13772e-010 -3.14513e-011 3.96022e-013
4
root  90.9145 39.3398 1.19608 -147.122 -86.0086 145.507
RightUpLeg  0.374471 -6.68729 -2.32104
RightLeg  4.73075 5.07987 -0.275711
RightFoot  -4.43756 0.0709167 -1.84424
RightToes  -1.16417e-010 0 -3.6325e-017
Spine  3.48237 1.4438 -1.5485
Spine1  0.00416584 1.25483 1.45973
HEad  -18.8114 -15.1815 1.24315
LeftShoulder1  -0.805889 5.64584 -31.4593
LeftArm  3.40253 12.1509 -43.0284
LeftForeArm  24.3872 -17.9643 -5.45474
LeftHand  -0.0702289 8.64046 -0.776182
RightShoulder  -1.19095 -6.90241 28.5345
RightArm  18.5006 -2.55188 47.5773
RightForeArm  15.1083 15.2078 5.79699
RightHand  0.00394743 3.68026 -0.205642
LeftUpLeg  0.341343 4.61278 -1.67748
LeftLeg  4.06924 4.73543 0.18208
LeftFoot  -3.02156 -0.180105 2.70343
LeftToes  3.13772e-010 -3.14513e-011 3.96022e-013
5
root  90.8554 39.338 1.21398 -147.666 -85.9074 146.403
RightUpLeg  -0.0346484 -6.56411 -2.25882
RightLeg  4.92799 5.03659 -0.333933
RightFoot  -4.51344 0.0775617 -1.94761
RightToes  -1.16417e-010 0 -3.6325e-017
Spine  2.36056 1.41596 -1.65611
Spine1  1.00492 1.21407 1.53646
HEad  -19.3736 -15.3338 1.21272
LeftShoulder1  -0.828352 5.69977 -31.5581
LeftArm  3.35153 11.974 -43.1089
LeftForeArm  24.1295 -18.1202 -5.37307
LeftHand  -0.0660666 8.89221 -0.557052
RightShoulder  -1.16066 -6.83747 28.3051
RightArm  17.8236 -2.15488 48.0639
RightForeArm  15.865 14.8572 5.82263
RightHand  0.0149937 3.14684 -0.0283868
LeftUpLeg  0.201677 4.56968 -1.7305
LeftLeg  3.76553 4.80383 0.169008
LeftFoot  -2.91541 -0.200723 3.02428
LeftToes  3.13772e-010 -3.14513e-011 3.96022e-013
6
root  90.8596 39.3329 1.23354 -139.163 -86.3446 137.751
RightUpLeg  0.077676 -6.83833 -2.63034
RightLeg  5.19125 4.66982 -0.254679
RightFoot  -4.74069 0.07363 -1.88645
RightToes  -1.16417e-010 0 -3.6325e-017
Spine  3.47659 1.16805 -2.22407
Spine1  -0.276967 0.914212 1.78024
HEad  -19.2266 -15.4717 1.22237
LeftShoulder1  -0.809273 5.65111 -31.5262
LeftArm  3.16845 12.2368 -43.0732
LeftForeArm  24.3621 -18.1035 -5.36122
LeftHand  -0.0650031 9.31719 -0.39214
RightShoulder  -1.19138 -6.88436 28.7342
RightArm  18.126 -2.42875 47.539
RightForeArm  15.7063 14.843 5.87009
RightHand  -0.000121696 3.13698 -0.245396
LeftUpLeg  0.339686 4.23286 -2.10106
LeftLeg  3.65849 4.59739 0.331451
LeftFoot  -2.89866 -0.18028 2.66322
LeftToes  3.13772e-010 -3.14513e-011 3.96022e-013
7
root  90.8296 39.3329 1.2382 -138.492 -86.4575 137.073
RightUpLeg  0.159936 -6.84871 -2.61546
RightLeg  5.1746 4.60107 -0.226252
RightFoot  -4.75992 0.0672247 -1.78682
RightToes  -1.16417e-010 0 -3.6325e-017
Spine  4.16484 1.09727 -2.19624
Spine1  -1.11964 0.855217 1.67703
HEad  -19.4859 -15.0651 1.28629
LeftShoulder1  -0.851209 5.76544 -31.4706
LeftArm  3.31122 12.4121 -42.9286
LeftForeArm  24.3061 -18.0139 -5.42402
LeftHand  -0.0523779 8.64763 -0.174863
RightShoulder  -1.2453 -7.01031 29.0186
RightArm  18.8686 -2.6595 47.3588
RightForeArm  15.4851 14.8933 5.9849
RightHand  -0.0456095 2.63736 -0.869997
LeftUpLeg  0.445382 4.30652 -2.04967
LeftLeg  3.48173 4.50071 0.285588
LeftFoot  -2.70708 -0.211474 3.01547
LeftToes  3.13772e-010 -3.14513e-011 3.96022e-013
